{"accessors" : [{"bufferView" : 0, "byteOffset" : 0, "componentType" : 5123, "count" : 1536, "type" : "SCALAR", "max" : [1518], "min" : [0]}, {"bufferView" : 1, "byteOffset" : 0, "componentType" : 5126, "count" : 1519, "type" : "VEC3", "max" : [30, 24, 4.919000148773193], "min" : [-31, -37, 0], "name" : "POSITION"}, {"bufferView" : 1, "byteOffset" : 12, "componentType" : 5126, "count" : 1519, "type" : "VEC3", "max" : [0.9988084435462952, 0.9988083243370056, 1.0000044107437134], "min" : [-0.9988084435462952, -0.9988083839416504, -1.0000044107437134], "name" : "NORMAL"}, {"bufferView" : 0, "byteOffset" : 3072, "componentType" : 5123, "count" : 1512, "type" : "SCALAR", "max" : [1502], "min" : [0]}, {"bufferView" : 2, "byteOffset" : 0, "componentType" : 5126, "count" : 1503, "type" : "VEC3", "max" : [30, 24, 5], "min" : [3, -3, 0], "name" : "POSITION"}, {"bufferView" : 2, "byteOffset" : 12, "componentType" : 5126, "count" : 1503, "type" : "VEC3", "max" : [0.9987626671791077, 0.9987624287605286, 1.0000044107437134], "min" : [-0.9987622499465942, -0.9987622499465942, -1.0000044107437134], "name" : "NORMAL"}], "asset" : {"generator" : "Aspose.3D 21.3.1", "version" : "2.0"}, "buffers" : [{"uri" : "buffer.bin", "byteLength" : 79260}], "bufferViews" : [{"buffer" : 0, "byteOffset" : 0, "byteLength" : 6096, "target" : 34963}, {"buffer" : 0, "byteOffset" : 6100, "byteLength" : 36864, "byteStride" : 24, "target" : 34962}, {"buffer" : 0, "byteOffset" : 42968, "byteLength" : 36288, "byteStride" : 24, "target" : 34962}], "materials" : [{"pbrMetallicRoughness" : {"baseColorFactor" : [0, 0.1411764770746231, 0.3450980484485626, 1], "metallicFactor" : 0, "roughnessFactor" : 0}, "emissiveFactor" : [0, 0.1411764770746231, 0.3450980484485626], "alphaMode" : "OPAQUE", "doubleSided" : false}, {"pbrMetallicRoughness" : {"baseColorFactor" : [0, 0.6823529601097107, 0.7803921699523926, 1], "metallicFactor" : 0, "roughnessFactor" : 0}, "emissiveFactor" : [0, 0.6823529601097107, 0.7803921699523926], "alphaMode" : "OPAQUE", "doubleSided" : false}], "meshes" : [{"primitives" : [{"attributes" : {"POSITION" : 1, "NORMAL" : 2}, "indices" : 0, "material" : 0, "mode" : 4}, {"attributes" : {"POSITION" : 4, "NORMAL" : 5}, "indices" : 3, "material" : 1, "mode" : 4}]}], "nodes" : [{"matrix" : [100, 0, 0, 0, 0, 99.99999999999866, 1.6292067073209108E-05, 0, 0, -1.6292067073209108E-05, 99.99999999999866, 0, 0, 0, 0, 1], "mesh" : 0, "name" : "OCTO Logo"}], "scene" : 0, "scenes" : [{"nodes" : [0]}]}